<svg xmlns="http://www.w3.org/2000/svg" viewBox="0 0 572.29 409.59"><defs><style>.cls-1{fill:#7e8083;fill-rule:evenodd;}.cls-2{fill:#a7aaaf;}</style></defs><title>3sixty5-logo</title><g id="Layer_2" data-name="Layer 2"><g id="Laag_1" data-name="Laag 1"><path class="cls-1" d="M268.83,25.74l0,0Z"/><polygon class="cls-2" points="364.36 63.86 297.35 63.66 276.45 0 255.56 63.66 188.56 63.86 242.65 103.39 222.13 167.17 276.45 127.96 330.78 167.17 310.26 103.39 364.36 63.86"/><path class="cls-2" d="M69.13,331.61H98.63c10.29,0,12.78,5.16,12.78,12.09v3c0,5.28-2.3,11.33-9.95,11.33H80v8.86H69.13ZM80,349.27H96.78c2.53,0,3.51-1.67,3.51-3.76v-1.36c0-2.4-1.17-3.76-4.43-3.76H80Z"/><path class="cls-2" d="M120,331.61h38.63v8.17h-27.8v5.66h26.34v7.32H130.85v5.65h28.44v8.49H120Z"/><path class="cls-2" d="M168.24,331.61h32.67c8.34,0,10.59,4.14,10.59,10.47v2.24c0,4.75-1.08,7.51-6,8.7v.1c3.22.56,5.89,2,5.89,7.79v6H200.52v-4.25c0-3.7-1.08-4.92-4.44-4.92h-17v9.17H168.24ZM179.06,349H197c2.93,0,4-1.17,4-3.7v-1.17c0-3.12-1.56-3.7-5-3.7H179.06Z"/><path class="cls-2" d="M220.49,355.75h10.83c0,3.74,1.56,4,4.68,4h13.27c2.29,0,4.62-.23,4.62-3,0-3.08-1.26-3.27-15.2-3.27-16.29,0-18.14-1.95-18.14-10.65,0-6.37.58-11.29,14.23-11.29H249.9c12.48,0,13.66,4.24,13.66,10.44v1.11H252.73c0-2.59-.29-3.64-5.26-3.64h-12c-2.44,0-4.1.82-4.1,2.72,0,3.08,1.32,3.17,12.93,3.12,16.82,0,20.72,1,20.72,11.27,0,9.5-3.22,11.06-17.6,11.06H234.3c-9.85,0-13.8-1.85-13.8-9.5Z"/><path class="cls-2" d="M273.67,344.38c0-10.33,5.8-12.77,15.55-12.77h17.36c9.75,0,15.56,2.43,15.56,12.77v10.53c0,10.34-5.81,12.77-15.56,12.77H289.22c-9.75,0-15.55-2.43-15.55-12.77Zm11.12,7.17c0,5.12,1.07,7.07,6.19,7.07h13.85c5.12,0,6.19-1.95,6.19-7.07v-3.8c0-4.4-1.07-7.07-6.77-7.07H291.56c-5.7,0-6.77,2.67-6.77,7.07Z"/><path class="cls-2" d="M331.32,331.61h16.78l20.34,25.66h.1V331.61h10.83v35.3H362.59l-20.32-25.64h-.11v25.64H331.32Z"/><path class="cls-2" d="M406.14,331.61h14.1l19.41,35.3H427.6l-3.37-6.25H402.29l-3.17,6.25H387Zm.19,21.45h13.84l-7-13.28Z"/><path class="cls-2" d="M447.3,331.61h10.82v26.22h24.34v9.08H447.3Z"/><path class="cls-2" d="M107.9,376.38h38v8.08h-14v24.41h-10V384.46h-14Z"/><path class="cls-2" d="M153.3,376.38h30.07c7.68,0,9.75,3.81,9.75,9.64v2.08c0,4.36-1,6.9-5.57,8v.11c3,.52,5.42,1.84,5.42,7.17v5.52H183V405c0-3.43-1-4.53-4.08-4.53H163.26v8.42h-10Zm10,16h16.48c2.69,0,3.68-1.06,3.68-3.4v-1.06c0-2.89-1.44-3.42-4.58-3.42H163.26Z"/><path class="cls-2" d="M217.67,376.38h13l17.87,32.49H237.42l-3.11-5.73h-20.2l-2.92,5.73H200.07Zm.17,19.75H230.6l-6.46-12.2Z"/><path class="cls-2" d="M255.82,376.38h10v32.49h-10Z"/><path class="cls-2" d="M274.93,376.38h15.44L309.1,400h.09v-23.6h10v32.49H303.71L285,385.27h-.09v23.6h-10Z"/><path class="cls-2" d="M328.42,376.38h10v32.49h-10Z"/><path class="cls-2" d="M347.54,376.38H363L381.71,400h.08v-23.6h10v32.49H376.32l-18.73-23.6h-.09v23.6h-10Z"/><path class="cls-2" d="M400.22,388.14c0-9.51,5.35-11.75,14.33-11.75h15c11.32,0,12.89,4.07,12.89,10.41v1h-9.8c0-3.24-1.84-3.66-5-3.66H416.78c-5,0-6.32,1.22-6.32,6.79v4c0,5.57,1.3,6.78,6.32,6.78h10.64c2.6,0,5.2-.39,5.2-3.55v-.93H420.25v-6.74h22.35v9.25c0,9.33-4.85,9.79-16.05,9.79h-12c-9,0-14.33-2.24-14.33-11.76Z"/><path class="cls-2" d="M31.54,243.1h5.92c12,0,12.94-1.23,12.94-7.52,0-7.63-.36-10.22-12.94-10.22-9,0-13.06.12-13.06,10.73v1.85H1v-3.21c0-26.38,13.93-28.6,37.59-28.6,14.91,0,35.25,1.24,35.25,24.9,0,10.34-2.85,19.35-14.18,20.83v1c11.83.51,15.29,9.13,15.29,19.84C74.92,296.58,59.4,300,38.57,300,17.13,300,0,298.2,0,271.81v-4.92H23.41V270c0,10.36,5.43,10.84,14.05,10.84,10.1,0,14.05-.49,14.05-11.21,0-6.29-1.11-8.63-14.05-8.63H31.54Z"/><path class="cls-2" d="M130.5,241.06c27.36,2,34.14,5.43,34.14,26.63,0,15.27.62,30.32-40.05,30.32-23.54,0-39.19-.51-39.19-30.82h23.66c0,9.62,3.45,10.59,15.53,10.59,11.58,0,15.4-.72,15.4-8.49,0-8-1.35-7.89-12.94-8.62l-5.42-.37c-22.8-1.62-36.11-1.48-36.11-28s14.91-28.23,39.07-28.23c20.21,0,37.46.37,37.46,25.89v3.82H138.39c0-9.5-3.94-9.5-13.8-9.5-13.31,0-14.41,2.73-14.41,7.91,0,7.38,3.57,7.63,10.09,8.12Z"/><path class="cls-2" d="M200,297.25H175.35V204.83H200Z"/><path class="cls-2" d="M274.31,249.7l27.49,47.55H273.08l-18.36-35.61-18.24,35.61h-29l27.73-47.55-26-44.87h28.83l16.64,33.9,16.76-33.9h28.34Z"/><path class="cls-2" d="M353.19,297.25H328.54v-71H304.86V204.83h73.21v21.46H353.19Z"/><path class="cls-2" d="M439.61,264.85v32.4H415v-32.4l-32.78-60h28.22l16.51,35.61h.86l17-35.61h28.58Z"/><path class="cls-2" d="M503.55,270.38c.49,7.79,4.92,8.39,11.82,8.39,10.73,0,14.06-.25,14.06-12.19s-.25-14.43-14.06-14.43c-7.89,0-10.47,0-11.82,4.44H482.34V204.83h66.79V222.7H503.55v17.73c6.15-6.52,8.62-6.75,20.33-6.75,22.43,0,28.95,8.86,28.95,30.31,0,29.44-10.72,34-37.46,34-22.8,0-34.62-4.69-35.24-27.63Z"/><path class="cls-2" d="M554.79,212.94a8.75,8.75,0,1,1,8.75,8.75A8.75,8.75,0,0,1,554.79,212.94Zm15.85,0a7.1,7.1,0,1,0-7.1,7.1A7.07,7.07,0,0,0,570.64,212.94Zm-2.76,4.76h-2.14l-2.11-4h-1.86v4h-1.84v-9.44h4.57c1.88,0,3.65.34,3.65,2.62,0,2-.9,2.71-2.55,2.83Zm-3.33-5.38c1.06,0,1.77-.25,1.77-1.45s-1.33-1.24-2.25-1.24h-2.3v2.69Z"/></g></g></svg>