<?xml version="1.0" encoding="utf-8"?>
<!-- Generator: Adobe Illustrator 22.0.0, SVG Export Plug-In . SVG Version: 6.00 Build 0)  -->
<svg version="1.1" id="Layer_1" xmlns="http://www.w3.org/2000/svg" xmlns:xlink="http://www.w3.org/1999/xlink" x="0px" y="0px"
	 viewBox="0 0 330.9 107.1" style="enable-background:new 0 0 330.9 107.1;" xml:space="preserve">
<style type="text/css">
	.st0{fill:#A7AAAF;}
</style>
<title>Hillig Meer logo</title>
<g id="Laag_2">
	<g id="Laag_1-2">
		<g>
			<path class="st0" d="M96,87.9c-2.7-3.2-6.1-5.8-9.9-7.4c-0.6-0.3-1.4-0.4-1.4-1.4c0-0.3-0.6-0.7-1-1c-4.4-2.5-8.8-4.9-13.1-7.6
				c-1.9-1.2-3.3-3.2-5-4.7c-0.8-0.5-1.6-0.8-2.4-1c-1-0.4-2-0.8-3-1.3c-0.1-0.4-0.1-0.9,0.1-1.3c2.2-0.8,4.5-1.6,6.7-2.3
				c2.6-0.8,5.4-0.8,8,0c1.3,0.4,2.6,1,3.8,1.6c0.2,0.2,0.4,0.4,0.5,0.7c0.9,0.1,1.8,0.3,2.7,0.7c4.5,2.6,8.9,5.3,13.4,7.8
				c1.3,0.6,2.6,1.1,4,1.3c2.7,0.7,5.1,2.3,6.7,4.5c3.2,4,6.5,7.9,10,11.6c1,1.1,2.7,1.6,2.3,3.6l0.5-1.2l8.2,3.4
				c0.9-0.8,3.4-0.5,4.4,0.6c1.7,2,4,3.4,6.6,3.9c-0.3-0.7-0.4-1.2-0.8-1.5c-1.3-1-2.6-2-4-3l0.2-0.7H144l0.1-0.6
				c-0.7-0.3-1.5-0.5-2.2-0.6c-2.7,0-5.3,0.1-8,0.1c-1.9,0-3.7-0.4-5.6-0.5c-4.4-0.2-8.5-2.3-11.4-5.7c-2.8-3.3-6.5-5.8-8.8-9.6
				c-0.5-0.8-0.7-1.9-1.3-2.6c-1.1-0.9-2.2-1.7-3.4-2.4c-2.4-1.8-5.5-2.1-8-3.5c-3.8-2.2-7.6-4.3-11.5-6.4c-2.1-1.1-4.2-2.1-6.5-3.2
				c4.1-1.8,5.9-1.5,12.4,2.3c0.5-1.6,2-1.7,3.2-1.7c2.5,0,5,0.4,7.6,0.6l0.2-0.9c-1.5-0.6-3-1.7-4.5-1.8c-1.9,0-3.7,0.2-5.5,0.8
				c-2.3,0.6-4-0.8-6-1.5c-0.4-0.7-0.4-1.6-0.1-2.3c1.2-1.6,2.7-3.1,4.2-4.4c1.7-1.1,3.5-2.1,5.4-3c2-1,3.8-1.3,5.4,0.7
				c0.5,0.5,1.2,0.9,1.8,1.1l0.2-0.3L99,45.2l0.1-0.6l7.2-3.2l-2.1-0.4l3.8-4.8c2.5,0.1,4.5-1.7,6.4-4c1.6-2,3.3-3.8,4.8-5.9
				c-1.4,1.5-2.9,2.9-4.4,4.4c-1.4,1.5-2.6,2.9-4.1,4.1c-0.8,0.8-2.2,0.8-3,0c0,0-0.1-0.1-0.1-0.1l7.7-8.2l-2.3,1.4
				c-0.1-2.1,1.2-3.6,2.4-5c1.2-1.4,2.7-2.6,4-3.9c-2.6,1.8-5.5,3.7-6.6,6.7c-1,2.7-2.1,5.1-4.5,6.6c-1.3,0.8-0.9,2.2-1.8,3.2
				c-1,1.1-1.8,2.4-2.4,3.8c-1,2.4-3.2,3-5.5,4.1l0.5-1.6c-0.2,0-0.3-0.1-0.4-0.1c-3.1,1.7-6.3,3.4-9.4,5.1
				c-1.6,0.8-3.1,1.8-4.5,2.8c-0.6,0.7-1.1,1.5-1.3,2.4c-0.9,2-2.7,2.5-4.6,2.9c-1,0.2-2.1,0.2-3.1,0.5c-0.4,0.1-0.7,0.4-1.1,0.8
				l-1.2-0.9c-0.8,0.4-1.8,0.6-2.7,0.7c-3.1-0.2-6.3,0.3-9.2,1.4c-3,1.1-4.7,2.8-7.7,0.9c-1-0.4-2-0.7-3.1-0.9
				c0.2-1.2,0.5-2.2,1.8-2.5c1-0.2,2.2-1.6,3.3-1.8c-0.2,0-0.3,0-0.5,0c-1.1-0.2-2.6,1-3.5,1.4c-1,0.4-1.3,1.6-2,2.4
				c-1.1-1-2.3-1.9-3.6-2.7c-4.6-2.2-8.2-5.6-12.1-8.7c-0.9-0.7-0.6-1.3,0-2.1c1.9-2.5,4.6-3.5,7.5-4.3c1.9-0.7,3.8-1.5,5.6-2.5
				c-3.6,1.3-7.3,2.5-10.9,3.9c-0.7,0.3-1.1,1.3-1.8,1.8c-0.7,0.5-1.5,0.9-2.3,1.1c-0.3,0.1-0.9-0.4-1.2-0.7c-1.1-1-3.1-0.4-4.4-0.6
				c-2.9-0.4-5.8-0.7-8.7-0.8l4-3.7c-1.7-1.2-2.1,0.9-3.4,1.2l0.9-3.3l-0.4-0.2l-1.6,2.4L15.9,37l0.5,2c-0.9,0.2-1.8,0.4-2.7,0.4
				c-3-0.1-5.9,0.1-8.9,0.1c-1.6,0-3.2,0-4.8-0.1c0,0.2,0,0.3,0,0.5c1,3.7,1,3.7,4.7,3.8C6.9,43.8,7.2,43.9,8,45
				c1.8-0.9,2.2-0.6,3.3,2.1l-0.6-1.9c2.5-0.9,4.9,0.1,7.3,0.6c2.5,0.5,2.7,0.6,4.6,3.4l-0.2-2.7c2.5,1.2,5.5-0.9,6.9,1.8
				c0.4,0.8,2,0.9,2.9,1.5c3.8,2.7,7.3,5.6,11.1,8.3c2.8,1.7,5.6,3.3,8.5,4.7c0.5,0.3,1.2,0,1.7,0.3c1.2,0.7,0.8,0.1,2,1.1
				c1.1-0.9,2.2-0.7,3.1,0.8c0.1,0.2,0.4,0.4,0.5,0.4c1.5-0.5,1.7,0.8,2,1.6c0.7,2,1.2,4,1.8,6c0.1,0.3,0.3,0.6,0.7,0.7L61.9,66
				c0.6,0,1.2,0.2,1.8,0.4c1.7,1.2,3.3,2.5,4.9,3.7c2.7,2,5.6,4,8.4,6c1.1,0.8,2.1,1.7,3.3,2.4c0.7,0.5,1.7,0.6,2.3,1.1
				c0.7,0.8,1.3,1.6,1.8,2.5l-0.3,0.2l0.4-1.7c0.6,0.2,1.2,0.4,1.7,0.6c2.9,1.3,5.6,3.1,7.8,5.4C94.6,87.1,95.3,87.6,96,87.9
				L96,87.9z"/>
			<path class="st0" d="M81.3,78c1.7,1.5,3.3,3.1,4.8,4.9c2.5,2.8,0.4,5.9,1,8.9c-4.4-1.7-5.2-3.2-5.7-11.3
				c-1.8,6.3-6.5,8.2-12.5,8.4c1.4-5.6,3.4-9.1,9.4-9.8C79.4,78.9,80.4,78.5,81.3,78z"/>
			<path class="st0" d="M98.8,73.5c1.7,3.4,2.1,7-0.6,10.5c-1.4-3.5-4-6.2-3.6-10.1c0.2-1.6,0.8-2.6,1-4.6
				C96.8,70.6,97.9,72,98.8,73.5z"/>
			<path class="st0" d="M107.4,76.4c4.7,2,6.4,3.5,6.2,10.2c-3.8-1.8-6.9-4.2-8.4-8.4c-0.3-0.8-0.8-1.6-1.5-2.1
				C104.9,76,106.2,76.1,107.4,76.4z"/>
			<path class="st0" d="M38.5,36.1c0.9-2.7,2.2-4.6,5.1-5.5c1.6-0.6,3.2-1.2,4.7-2c1.9,4.5,0.3,8-4.9,9.8c-1.6,0.6-3.5,0.7-4.8,1.7
				C38.3,38.8,38.3,37.4,38.5,36.1z"/>
			<path class="st0" d="M99.2,45.8c1.8,0.5,3.7,0.5,5.5,0.1c7.3-1.2,11.6,2.4,11.9,10.3c-2.5-1.1-5.1-1.1-7.6-1.4
				c-3.4-0.4-6.4-1.7-7.5-5.5C101,48,100.2,46.8,99.2,45.8z"/>
			<path class="st0" d="M26.1,49.4c7.4,6.8,8,10,3,16.7c-1.9-2.6-4.1-5-6.7-7c-2.2-1.9-3.5-4.6-2.5-7.4c1-2.6,1-4.2-2-5.2
				C21,46.2,24,47.3,26.1,49.4z"/>
			<path class="st0" d="M114.8,21.9c2.5-5,1.6-9.7-1-14.3c-0.1-0.1-0.1-0.2-0.1-0.3c-1-2.2-1.9-4.4-0.6-6.8c0.2-0.2,0.5-0.4,0.8-0.4
				c1.6,2.2,4.6,3.1,5.3,6.1c0.4,1.9,0.1,3.9-0.8,5.7c-0.8,1.9-1.1,3.9-1,5.9c2.9-4.4,8-3.9,12.1-5.7c-0.9,5.8-5.1,9.7-10.6,9.9
				c-1.1,0-2.3-0.2-3.2,0.8L114.8,21.9z"/>
			<path class="st0" d="M141.4,88.6c2.6,0.3,5.1,0.8,7.6,1.4c4.3,1.3,8.6,1.5,12.7,3.2c1.8,0.9,3.5,2.2,4.9,3.7
				c1.1,0.9,1.2,2.5,0.4,3.6c-1.6,2.3-4.1,3.9-6.9,4.2l0.5-0.5c0.9-0.8,2.4-1.6,2.5-2.5c0.3-2.5,0.3-5.1-2.2-6.9
				c-3.5-2.5-7.4-2.6-11.5-3.7c-2.7-0.7-5.5-1.4-8.3-2.1L141.4,88.6z"/>
			<path class="st0" d="M151.2,87.4c2.1,0.3,4.2,0.7,6.2,1.2c4.3,1.4,8.7,1.5,12.9,3.3c2.4,1.2,4.6,2.8,6.5,4.7c1.7,1.5,1,4.7-1,5.7
				c-0.5,0.2-1.2,0-1.9,0c1.2-5.1,0.7-7.2-4.2-9.5c-5.2-2.4-10.7-2.8-16.1-4.7c-0.8-0.2-1.6-0.4-2.4-0.5V87.4z"/>
			<path class="st0" d="M118.8,93.5c0,0-15.4,0.9-15.1,6.4c0.2,5.4,4.2,4,4.2,4s-2-1.5-2-2.9c0.1-0.9,0.5-1.7,1.2-2.2
				c0,0,0.4,8.3,24.2,8.3s27.2-5.8,27.2-7.6c0-1.8-6.4-4.8-6.4-4.8s4,2.4,4,4.5s-9.1,4.6-9.1,4.6s5.8-2.7,6.3-5.3c0.5-2.6-8-5-8-5
				s5.7,3.2,6.1,5.2c0.4,2-9.6,6.3-18.5,6.3s-21.3-1.4-22.6-5.2c-1.3-3.8,2.1-3.7,2.1-3.7s0,1.4,0.1,2.8s8.4,4.6,18.8,4.7
				c10.4,0.1,11.7-2.4,11.7-2.4c-3.3,0.5-6.7,0.7-10,0.8c-7,0.3-17.6-2.1-17.7-4.1c-0.1-2,4.8-3.8,4.8-3.8L118.8,93.5z"/>
		</g>
		<g>
			<path class="st0" d="M151.3,55.3h8.1v-6c0-0.4,0.4-0.8,0.8-0.8c0.4,0,0.8,0.4,0.8,0.8v12.8c0,0.4-0.4,0.8-0.8,0.8
				c-0.4,0-0.8-0.4-0.8-0.8v-5.4h-8.1v5.4c0,0.4-0.4,0.8-0.8,0.8c-0.4,0-0.8-0.4-0.8-0.8V49.3c0-0.4,0.4-0.8,0.8-0.8
				c0.4,0,0.8,0.4,0.8,0.8V55.3z"/>
			<path class="st0" d="M166.1,49.9c-0.1,0.5-0.5,0.8-0.9,0.7c-0.4,0-0.7-0.3-0.7-0.7v-1c0.1-0.5,0.5-0.8,0.9-0.7
				c0.4,0,0.7,0.3,0.7,0.7V49.9z M164.4,52.3c0-0.9,1.6-1,1.6,0v9.9c0,1-1.6,0.9-1.6,0V52.3z"/>
			<path class="st0" d="M170.7,62.1c0,0.4-0.5,0.8-0.9,0.7c-0.4,0-0.7-0.3-0.7-0.7V48.9c0-0.4,0.5-0.8,0.9-0.7
				c0.4,0,0.7,0.3,0.7,0.7V62.1z"/>
			<path class="st0" d="M175.2,62.1c0,0.4-0.4,0.8-0.8,0.8c-0.4,0-0.8-0.4-0.8-0.8V48.9c0-0.4,0.4-0.8,0.8-0.8
				c0.4,0,0.8,0.4,0.8,0.8V62.1z"/>
			<path class="st0" d="M179.6,49.9c-0.1,0.5-0.5,0.8-0.9,0.7c-0.4,0-0.7-0.3-0.7-0.7v-1c0.1-0.5,0.5-0.8,0.9-0.7
				c0.4,0,0.7,0.3,0.7,0.7V49.9z M178,52.3c0-0.9,1.6-1,1.6,0v9.9c0,1-1.6,0.9-1.6,0V52.3z"/>
			<path class="st0" d="M192.8,62.2c0,3.2-2.4,4.8-5.4,4.8c-1.5,0.1-3.1-0.5-4.2-1.5c-0.3-0.3-0.4-0.8-0.2-1.1
				c0.3-0.3,0.8-0.4,1.1-0.2c0,0,0.1,0.1,0.1,0.1c0.9,0.7,2,1.1,3.1,1.1c2,0,3.9-1,3.9-3.3V61c-0.7,1.3-2.1,2-3.5,2
				c-0.8,0-1.6-0.1-2.4-0.4c-2-0.9-3.3-2.9-3.3-5.1c-0.2-2.5,1.2-4.8,3.5-5.7c0.7-0.2,1.4-0.4,2.1-0.4c1.4-0.1,2.8,0.6,3.6,1.7v-0.8
				c0-0.4,0.3-0.8,0.7-0.8c0,0,0.1,0,0.1,0c0.4,0,0.8,0.3,0.8,0.7c0,0,0,0.1,0,0.1V62.2z M185.2,53.7L185.2,53.7
				c-1.1,0.9-1.7,2.3-1.6,3.7c0,0.6,0.1,1.1,0.3,1.6c0.7,1.5,2.1,2.4,3.8,2.3l0,0c1.9,0,3.5-1.5,3.5-3.4v-1.7c0.1-1.3-0.7-2.5-1.9-3
				C188,52.7,186.4,52.8,185.2,53.7L185.2,53.7z"/>
			<path class="st0" d="M214.6,49.1c0.2-0.4,0.6-0.6,1-0.5c0.4,0.1,0.6,0.5,0.5,0.9v12.7c0,0.4-0.4,0.8-0.8,0.8
				c-0.4,0-0.8-0.4-0.8-0.8v-10l-4.5,7c-0.2,0.4-0.7,0.6-1.1,0.4c-0.2-0.1-0.3-0.2-0.4-0.4l-4.5-7v10c0,0.4-0.4,0.8-0.8,0.8
				c-0.4,0-0.8-0.4-0.8-0.8V49.5c-0.1-0.4,0.2-0.8,0.6-0.9c0.4-0.1,0.7,0.1,0.9,0.5l5.4,8.4L214.6,49.1z"/>
			<path class="st0" d="M226.6,51.6c2.5,0.7,4.2,3,4.1,5.5l0,0c0,0.5-0.2,1-1.1,1h-8.7c0.3,1.9,2,3.3,4,3.3c1.1,0,2.1-0.3,2.9-0.9
				c0.8-0.7,1.9,0.2,1.1,1.1c-1.1,0.9-2.5,1.4-3.9,1.3c-1.7,0-3.4-0.7-4.5-2c-2.4-3.1-1.3-8.2,2.7-9.3
				C224.3,51.3,225.5,51.3,226.6,51.6L226.6,51.6z M220.8,56.8h8.3c-0.1-1.8-1.3-3.3-3-3.7l0,0c-0.8-0.2-1.6-0.2-2.4,0
				C222,53.5,220.9,55,220.8,56.8z"/>
			<path class="st0" d="M240.2,51.6c2.5,0.7,4.2,3,4.1,5.5l0,0c0,0.5-0.2,1-1.1,1h-8.7c0.3,1.9,2,3.3,4,3.3c1.1,0,2.1-0.3,2.9-0.9
				c0.8-0.7,1.9,0.2,1.1,1.1c-1.1,0.9-2.5,1.4-3.9,1.3c-1.7,0-3.4-0.7-4.5-2c-2.4-3.1-1.3-8.2,2.7-9.3
				C237.9,51.3,239.1,51.3,240.2,51.6L240.2,51.6z M234.4,56.8h8.3c-0.1-1.8-1.3-3.3-3-3.7l0,0c-0.8-0.2-1.6-0.2-2.4,0
				C235.7,53.5,234.5,55,234.4,56.8L234.4,56.8z"/>
			<path class="st0" d="M248.6,53.4c0.6-1.2,1.9-2,3.3-1.9c0.4-0.1,0.8,0.2,0.8,0.6c0,0,0,0.1,0,0.1c0,0.5-0.3,0.7-0.8,0.7
				c-2.3,0-3.2,1.8-3.2,4v5c0,0.4-0.3,0.8-0.8,0.8c0,0,0,0,0,0c-0.4,0.1-0.8-0.2-0.8-0.6c0-0.1,0-0.1,0-0.2v-9.7
				c0-0.4,0.4-0.8,0.8-0.8c0.4,0,0.8,0.3,0.8,0.8L248.6,53.4z"/>
		</g>
		<g>
			<path class="st0" d="M189.2,75.6c0-1.3-1-2.3-2.3-2.3c0,0,0,0,0,0c-1.6,0-2.8,1.3-2.8,2.8v3.5c0,0.3-0.2,0.5-0.5,0.5
				c0,0-0.1,0-0.1,0c-0.3,0-0.5-0.2-0.6-0.4c0,0,0,0,0-0.1v-6.7c0-0.3,0.2-0.5,0.5-0.5c0.3,0,0.5,0.2,0.5,0.5v0.9
				c0.6-1,1.7-1.7,2.9-1.6c1.8-0.1,3.3,1.3,3.4,3.2c0,0.1,0,0.1,0,0.2v4c0,0.3-0.2,0.5-0.5,0.5c0,0-0.1,0-0.1,0
				c-0.3,0-0.5-0.2-0.5-0.4c0,0,0,0,0-0.1L189.2,75.6z"/>
			<path class="st0" d="M194.4,72.6c0.5-0.2,1.1-0.3,1.6-0.3c0.9,0,1.8,0.4,2.4,1.2v-0.6c0-0.3,0.2-0.5,0.5-0.5c0,0,0.1,0,0.1,0
				c0.3,0,0.5,0.2,0.5,0.5c0,0,0,0,0,0.1v6.7c0,0.3-0.2,0.5-0.5,0.5c0,0,0,0-0.1,0c-0.3,0-0.5-0.2-0.5-0.5c0,0,0-0.1,0-0.1v-0.7
				c-0.5,0.8-1.4,1.4-2.4,1.4c-0.8,0-1.5-0.2-2.2-0.6c-1.1-0.8-1.8-2.1-1.7-3.5C192.1,74.6,193.1,73.2,194.4,72.6L194.4,72.6z
				 M198.4,76.9v-1.2c0-1.2-0.9-2.3-2.2-2.3c-0.1,0-0.2,0-0.3,0c-1.1,0-2.1,0.6-2.6,1.6c-0.1,0.4-0.2,0.7-0.2,1.1
				c-0.1,1,0.3,1.9,1.1,2.5c0.4,0.3,1,0.5,1.5,0.6c1.3,0.1,2.4-0.9,2.5-2.2C198.4,77,198.4,76.9,198.4,76.9L198.4,76.9z"/>
			<path class="st0" d="M205.1,72.4c0.3,0,0.5,0.2,0.5,0.5s-0.2,0.5-0.5,0.5h-1.6v4c0,0.8,0.1,1.7,1.2,1.7c0.2,0,0.5-0.1,0.7-0.2
				c0.2-0.2,0.5-0.1,0.7,0.1c0.2,0.2,0.1,0.5-0.1,0.7c0,0-0.1,0.1-0.1,0.1c-0.4,0.2-0.8,0.3-1.1,0.3c-1.8,0-2.2-1.3-2.2-2.7v-4h-1
				c-0.3,0-0.5-0.2-0.5-0.5s0.2-0.5,0.5-0.5h1v-1.7c0-0.3,0.2-0.5,0.5-0.5c0.3,0,0.5,0.2,0.5,0.5v1.7H205.1z"/>
			<path class="st0" d="M208.3,76.8c0,1.3,1,2.3,2.3,2.3c0,0,0,0,0,0c1.6,0,2.8-1.3,2.8-2.8v-3.5c0-0.3,0.2-0.5,0.4-0.5
				c0,0,0.1,0,0.1,0c0.3,0,0.5,0.2,0.6,0.4c0,0,0,0.1,0,0.1v6.7c0,0.3-0.2,0.5-0.5,0.5c-0.3,0-0.5-0.2-0.5-0.5v-0.9
				c-0.6,1-1.7,1.7-2.9,1.6c-1.8,0.1-3.3-1.3-3.4-3.1c0-0.1,0-0.1,0-0.2v-4c0-0.3,0.2-0.5,0.4-0.5c0,0,0.1,0,0.1,0
				c0.3,0,0.5,0.2,0.6,0.5c0,0,0,0,0,0.1L208.3,76.8z"/>
			<path class="st0" d="M218,76.8c0,1.3,1,2.3,2.3,2.3c0,0,0,0,0,0c1.6,0,2.8-1.3,2.8-2.8v-3.5c0-0.3,0.2-0.5,0.4-0.5
				c0,0,0.1,0,0.1,0c0.3,0,0.5,0.2,0.6,0.4c0,0,0,0.1,0,0.1v6.7c0,0.3-0.2,0.5-0.5,0.5c-0.3,0-0.5-0.2-0.5-0.5v-0.9
				c-0.6,1-1.7,1.7-2.9,1.6c-1.8,0.1-3.3-1.3-3.4-3.1c0-0.1,0-0.1,0-0.2v-4c0-0.3,0.2-0.5,0.4-0.5c0,0,0.1,0,0.1,0
				c0.3,0,0.5,0.2,0.6,0.5c0,0,0,0,0,0.1L218,76.8z"/>
			<path class="st0" d="M227.6,73.7c0.4-0.8,1.3-1.4,2.2-1.3c0.3,0,0.5,0.2,0.6,0.4c0,0,0,0.1,0,0.1c0,0.3-0.2,0.5-0.6,0.5
				c-1.5,0-2.2,1.2-2.2,2.7v3.4c0,0.3-0.2,0.5-0.5,0.5c0,0,0,0,0,0c-0.3,0-0.5-0.2-0.5-0.5c0,0,0,0,0-0.1v-6.6
				c0-0.3,0.2-0.5,0.5-0.5c0.3,0,0.5,0.2,0.5,0.5L227.6,73.7z"/>
			<path class="st0" d="M236.5,80L236.5,80c-0.5,0.2-0.9,0.3-1.4,0.3c-1,0-1.9-0.5-2.5-1.3v0.7c0,0.3-0.1,0.5-0.4,0.5
				c0,0-0.1,0-0.1,0c-0.3,0-0.5-0.2-0.5-0.4c0,0,0,0,0-0.1v-9.1c0-0.3,0.3-0.5,0.6-0.5c0.2,0,0.4,0.2,0.5,0.5v3
				c0.5-0.8,1.5-1.3,2.4-1.2c2-0.1,3.8,1.5,3.9,3.5c0,0.1,0,0.1,0,0.2C239.1,77.8,238.1,79.4,236.5,80z M236.7,78.7
				c0.8-0.6,1.2-1.6,1.1-2.5c0-0.4-0.1-0.8-0.2-1.1c-0.5-1-1.5-1.6-2.6-1.6c-1.3,0-2.4,1-2.4,2.3c0,0,0,0,0,0v1.2
				c0,1.3,1,2.3,2.3,2.3c0.1,0,0.1,0,0.2,0C235.8,79.2,236.3,79,236.7,78.7L236.7,78.7z"/>
			<path class="st0" d="M245.4,72.4c1.7,0.4,2.9,2,2.8,3.8l0,0c0,0.3-0.1,0.7-0.7,0.7h-5.9c0.2,1.3,1.4,2.3,2.7,2.2
				c0.7,0,1.4-0.2,2-0.6c0.5-0.5,1.3,0.1,0.7,0.7c-0.7,0.6-1.7,1-2.7,0.9c-1.1,0-2.2-0.5-3-1.3c-1.6-2.1-0.9-5.6,1.9-6.4
				C244,72.3,244.8,72.3,245.4,72.4L245.4,72.4z M241.5,76h5.6c0-1.2-0.9-2.2-2-2.5l0,0c-0.5-0.1-1.1-0.1-1.6,0
				C242.3,73.8,241.5,74.8,241.5,76z"/>
			<path class="st0" d="M257.1,79.7c0,2.2-1.6,3.3-3.7,3.3c-1.1,0.1-2.1-0.3-2.9-1c-0.2-0.2-0.3-0.5-0.1-0.8
				c0.2-0.2,0.5-0.3,0.8-0.1c0,0,0.1,0,0.1,0.1c0.6,0.5,1.4,0.8,2.1,0.7c1.4,0,2.6-0.7,2.6-2.2v-0.8c-0.5,0.8-1.4,1.3-2.4,1.3
				c-0.6,0-1.1-0.1-1.6-0.3c-1.4-0.6-2.3-1.9-2.3-3.4c-0.1-1.7,0.8-3.3,2.4-3.9c0.5-0.2,0.9-0.3,1.4-0.2c1,0,1.9,0.4,2.4,1.2v-0.6
				c0-0.3,0.2-0.5,0.5-0.5c0,0,0.1,0,0.1,0c0.3,0,0.5,0.2,0.5,0.5c0,0,0,0,0,0.1L257.1,79.7z M251.9,73.9L251.9,73.9
				c-0.8,0.6-1.2,1.6-1.1,2.5c0,0.4,0.1,0.8,0.2,1.1c0.4,1,1.5,1.7,2.6,1.6l0,0c1.3,0,2.4-1,2.4-2.3v-1.2c0.1-0.9-0.4-1.7-1.3-2
				C253.8,73.2,252.7,73.3,251.9,73.9L251.9,73.9z"/>
			<path class="st0" d="M260.4,73.7c0.4-0.8,1.3-1.4,2.2-1.3c0.3,0,0.5,0.2,0.6,0.4c0,0,0,0.1,0,0.1c0,0.3-0.2,0.5-0.6,0.5
				c-1.5,0-2.2,1.2-2.2,2.7v3.4c0,0.3-0.2,0.5-0.5,0.5c0,0,0,0,0,0c-0.3,0-0.5-0.2-0.5-0.5c0,0,0,0,0-0.1v-6.6
				c0-0.3,0.2-0.5,0.5-0.5s0.5,0.2,0.5,0.5L260.4,73.7z"/>
			<path class="st0" d="M266.3,72.6c0.5-0.2,1.1-0.3,1.6-0.3c0.9,0,1.8,0.4,2.4,1.2v-0.6c0-0.3,0.2-0.5,0.5-0.5c0,0,0.1,0,0.1,0
				c0.3,0,0.5,0.2,0.5,0.5c0,0,0,0,0,0.1v6.7c0,0.3-0.2,0.5-0.5,0.5c0,0,0,0-0.1,0c-0.3,0-0.5-0.2-0.5-0.5c0,0,0-0.1,0-0.1v-0.7
				c-0.5,0.8-1.4,1.4-2.4,1.4c-0.8,0-1.5-0.2-2.2-0.6c-1.1-0.8-1.8-2.1-1.7-3.5C264,74.6,264.9,73.2,266.3,72.6L266.3,72.6z
				 M270.3,76.9v-1.2c0-1.2-0.9-2.3-2.2-2.3c-0.1,0-0.1,0-0.2,0c-1.1,0-2.1,0.6-2.6,1.6c-0.1,0.4-0.2,0.7-0.2,1.1
				c-0.1,1,0.3,1.9,1.1,2.5c0.4,0.3,1,0.5,1.5,0.6c1.3,0.1,2.4-0.9,2.5-2.2C270.3,76.9,270.3,76.9,270.3,76.9L270.3,76.9z"/>
			<path class="st0" d="M275.5,72.6c0.5-0.2,1.1-0.3,1.6-0.3c0.9,0,1.8,0.4,2.4,1.2v-0.6c0-0.3,0.2-0.5,0.5-0.5c0,0,0.1,0,0.1,0
				c0.3,0,0.5,0.2,0.5,0.5c0,0,0,0,0,0.1v6.7c0,0.3-0.2,0.5-0.5,0.5c0,0,0,0-0.1,0c-0.3,0-0.5-0.2-0.5-0.5c0,0,0-0.1,0-0.1v-0.7
				c-0.5,0.8-1.4,1.4-2.4,1.4c-0.8,0-1.5-0.2-2.2-0.6c-1.1-0.8-1.8-2.1-1.7-3.5C273.2,74.5,274.1,73.2,275.5,72.6L275.5,72.6z
				 M279.5,76.9v-1.2c0-1.2-0.9-2.3-2.2-2.3c-0.1,0-0.1,0-0.2,0c-1.1,0-2.1,0.6-2.6,1.6c-0.1,0.4-0.2,0.7-0.2,1.1
				c-0.1,1,0.3,1.9,1.1,2.5c0.4,0.3,1,0.5,1.5,0.6c1.3,0.1,2.4-0.9,2.5-2.2C279.5,76.9,279.5,76.9,279.5,76.9L279.5,76.9z"/>
			<path class="st0" d="M284.4,73.5v6.1c0,0.3-0.3,0.5-0.6,0.5c-0.2,0-0.4-0.2-0.5-0.5v-6.1h-0.8c-0.3,0-0.5-0.2-0.5-0.5
				c0-0.3,0.2-0.5,0.5-0.5h0.8v-0.3c0.1-1.3,1.1-2.2,2.4-2.2c0.5,0,0.9,0.2,1.3,0.5c0.2,0.2,0.2,0.5,0.1,0.7
				c-0.2,0.2-0.5,0.2-0.7,0.1c-0.5-0.4-1.3-0.4-1.7,0.1c-0.2,0.2-0.3,0.5-0.3,0.8v0.3h1.4c0.5,0,0.5,0.9,0,0.9L284.4,73.5z"/>
			<path class="st0" d="M291.4,80.2c-1,0.1-1.9-0.4-2.4-1.2v3.2c0,0.3-0.3,0.5-0.6,0.5c-0.2,0-0.4-0.2-0.5-0.5v-9.3
				c0-0.3,0.2-0.5,0.5-0.5c0,0,0,0,0.1,0c0.3,0,0.5,0.2,0.5,0.4c0,0,0,0.1,0,0.1v0.7c0.5-0.9,1.5-1.4,2.5-1.3c0.5,0,1,0.1,1.4,0.3
				l0,0c1.6,0.6,2.5,2.2,2.4,3.9c0,2-1.6,3.7-3.7,3.7C291.5,80.2,291.5,80.2,291.4,80.2z M289,75.7v1.2c0,1.3,1.1,2.3,2.3,2.3
				c0,0,0,0,0,0c1.1,0,2.1-0.6,2.6-1.6c0.1-0.4,0.2-0.7,0.2-1.1c0.1-1-0.4-1.9-1.1-2.5c-0.4-0.3-1-0.5-1.5-0.6
				c-1.3-0.1-2.4,0.9-2.5,2.2C289,75.6,289,75.6,289,75.7z"/>
			<path class="st0" d="M298.2,79.6c0,0.3-0.3,0.5-0.6,0.5c-0.2,0-0.4-0.2-0.5-0.5v-9c0-0.3,0.3-0.5,0.6-0.5c0.2,0,0.4,0.2,0.5,0.5
				V79.6z"/>
			<path class="st0" d="M302.2,72.6c0.5-0.2,1.1-0.3,1.6-0.3c0.9,0,1.8,0.4,2.4,1.2v-0.6c0-0.3,0.2-0.5,0.5-0.5c0,0,0.1,0,0.1,0
				c0.3,0,0.5,0.2,0.5,0.5c0,0,0,0,0,0.1v6.7c0,0.3-0.2,0.5-0.5,0.5c0,0,0,0-0.1,0c-0.3,0-0.5-0.2-0.5-0.5c0,0,0-0.1,0-0.1v-0.7
				c-0.5,0.8-1.4,1.4-2.4,1.4c-0.8,0-1.5-0.2-2.2-0.6c-1.1-0.8-1.8-2.1-1.7-3.5C299.9,74.5,300.8,73.2,302.2,72.6L302.2,72.6z
				 M306.2,76.9v-1.2c0-1.2-0.9-2.3-2.2-2.3c-0.1,0-0.1,0-0.2,0c-1.1,0-2.1,0.6-2.6,1.6c-0.1,0.4-0.2,0.7-0.2,1.1
				c-0.1,1,0.3,1.9,1.1,2.5c0.4,0.3,1,0.5,1.5,0.6c1.3,0.1,2.4-0.9,2.5-2.2C306.2,76.9,306.2,76.9,306.2,76.9L306.2,76.9z"/>
			<path class="st0" d="M311.5,72.6c0.5-0.2,1.1-0.3,1.6-0.3c0.9,0,1.8,0.4,2.4,1.2v-0.6c0-0.3,0.2-0.5,0.5-0.5c0,0,0.1,0,0.1,0
				c0.3,0,0.5,0.2,0.5,0.5c0,0,0,0,0,0.1v6.7c0,0.3-0.2,0.5-0.5,0.5c0,0,0,0-0.1,0c-0.3,0-0.5-0.2-0.5-0.5c0,0,0-0.1,0-0.1v-0.7
				c-0.5,0.9-1.4,1.4-2.4,1.4c-0.8,0-1.5-0.2-2.2-0.6c-1.1-0.8-1.8-2.1-1.7-3.5C309.1,74.6,310,73.2,311.5,72.6L311.5,72.6z
				 M315.5,76.9v-1.2c0-1.2-0.9-2.3-2.2-2.3c-0.1,0-0.1,0-0.2,0c-1.1-0.1-2.2,0.6-2.6,1.6c-0.1,0.4-0.2,0.7-0.2,1.1
				c-0.1,1,0.3,1.9,1.1,2.5c0.4,0.3,1,0.5,1.5,0.6c1.3,0.1,2.4-0.9,2.5-2.2C315.4,77,315.4,76.9,315.5,76.9L315.5,76.9z"/>
			<path class="st0" d="M322.2,72.4c0.3,0,0.5,0.2,0.5,0.5s-0.2,0.5-0.5,0.5h-1.6v4c0,0.8,0.1,1.7,1.2,1.7c0.2,0,0.5-0.1,0.7-0.2
				c0.2-0.2,0.5-0.1,0.7,0.1c0.2,0.2,0.1,0.5-0.1,0.7c0,0-0.1,0.1-0.1,0.1c-0.4,0.2-0.8,0.3-1.1,0.3c-1.8,0-2.2-1.3-2.2-2.7v-4h-1
				c-0.3,0-0.5-0.2-0.5-0.5s0.2-0.5,0.5-0.5h1v-1.7c0-0.3,0.2-0.5,0.5-0.5c0.3,0,0.5,0.2,0.5,0.5v1.7H322.2z"/>
			<path class="st0" d="M325.1,78.2c0.1,0.7,1.3,1,2.4,1c0.7,0,2.3-0.3,2.3-1.4s-1.1-1-2.3-1.1c-1.6-0.1-3.4-0.3-3.4-2.1
				c0-1.6,1.8-2.3,3.3-2.3c1.2,0,2.8,0.2,3.3,1.5c0.2,0.7-0.8,1-1,0.4c-0.3-0.9-1.6-0.9-2.3-0.9c-0.9,0-2.2,0.4-2.2,1.3
				c0,0.9,1.1,0.9,2.3,1c1.6,0.1,3.4,0.3,3.4,2.2c0,1.9-2.2,2.4-3.4,2.4c-1.2,0-3.2-0.3-3.5-1.8c0-0.3,0.3-0.5,0.6-0.5
				C324.9,77.9,325,78,325.1,78.2z"/>
		</g>
	</g>
</g>
</svg>
