<svg xmlns="http://www.w3.org/2000/svg" viewBox="0 0 2205.9 2205.88"><defs><style>.cls-1{fill:#a7aaaf;}.cls-2{fill:#bcbec1;}.cls-2,.cls-3{stroke:#bcbec1;stroke-linejoin:round;stroke-width:1.76px;}.cls-3{fill:#fff;}</style></defs><title>jorritsmabouw-logo</title><g id="Layer_2" data-name="Layer 2"><g id="Layer_1-2" data-name="Layer 1"><path class="cls-1" d="M0,0H2205.9V2205.88H0Z"/><path class="cls-2" d="M1574.66,809.24H1341.55V332.16H631.41l-122,122V809.24H864.47v710.24H631.41V1042.35H276.28l-122,122.06v296.13l414.07,414H864.47v.16h710.17v-.21l355.1-355V1164.41L1574.66,809.24Zm-355.1,355.16h355v355.23h-355V1164.4Z"/><path class="cls-3" d="M631.41,687.24H986.48V332.16H631.41Zm0,1065.31H986.53V1397.48H631.45Zm710.11.16h355.1V1397.63h-355.1v355.07Z"/><path class="cls-3" d="M986.48,1752.71h355.07V332.16H986.48Zm1065.3-710.32L1696.7,687.24H1341.55v355.15Zm-355.13,710.16,355.13-355.07V1042.39H1696.65Zm-1065.21,0L276.28,1397.48V1042.39H631.45v710.16Z"/></g></g></svg>