<svg xmlns="http://www.w3.org/2000/svg" viewBox="0 0 214.13 68.54"><defs><style>.cls-1{fill:#a7aaaf;}</style></defs><title>lxr-logo</title><g id="Layer_2" data-name="Layer 2"><g id="Layer_1-2" data-name="Layer 1"><path class="cls-1" d="M195.92.16H132.36A4.73,4.73,0,0,0,129,1.55L121.87,8.7,102.06,28.51,82.24,8.7,74.92,1.37a4.14,4.14,0,1,0-5.85,5.85L70.54,8.7,96.2,34.36,97.83,36l4.23,4.22,19.56,19.56,7.56,7.56A4.14,4.14,0,0,0,135,61.48l-1.71-1.71L107.91,34.36,133.57,8.7h62.35V30h-23.8a1.75,1.75,0,0,0-1.75,1.75V38.5a3.47,3.47,0,0,0,1,2.46l18.82,18.82,5.71,5.71,1.94,1.94a3.85,3.85,0,0,0,6.58-2.73v-.8a3.86,3.86,0,0,0-1.13-2.73l-1.39-1.39-6-6L180.64,38.5h19.07a4.73,4.73,0,0,0,4.73-4.73V4.89A4.73,4.73,0,0,0,199.71.16Z"/><path class="cls-1" d="M93.22,37.35,70.79,59.77H8.52V4.42A4.26,4.26,0,0,0,0,4.42V63.81a4.73,4.73,0,0,0,4.73,4.73h67a4.72,4.72,0,0,0,3.34-1.39l7.39-7.38L99.07,43.2,94.84,39Z"/><path class="cls-1" d="M214.13,3.28a3.24,3.24,0,1,1-6.49,0,3.24,3.24,0,1,1,6.49,0ZM210.88,6a2.58,2.58,0,0,0,2.67-2.77,2.67,2.67,0,1,0-5.34,0A2.58,2.58,0,0,0,210.88,6Zm.56-2.37a1.07,1.07,0,0,0-.24-2.13h-1.54V5h.51V3.72h.67l1,1.23h.57V4.84ZM211.2,2a.61.61,0,1,1,0,1.22h-1V2Z"/></g></g></svg>