<svg xmlns="http://www.w3.org/2000/svg" viewBox="0 0 188.93 66.1"><defs><style>.cls-1{fill:#a7aaaf;}.cls-2{fill:#fff;}</style></defs><title>Asset 1</title><g id="Layer_2" data-name="Layer 2"><g id="Layer_1-2" data-name="Layer 1"><g id="Canvas"><g id="payt-logo-zwart"><g id="g10"><g id="g12"><g id="g14"><g id="g16"><g id="path22"><path id="path0_fill" data-name="path0 fill" class="cls-1" d="M50.59,12.32C50.59,5.51,44.81,0,37.69,0H12.91C5.79,0,0,5.51,0,12.32c0,6.14,0,19.62,0,25.81,0,6.8,5.77,12.32,12.9,12.32H37.68c7.12,0,12.9-5.51,12.9-12.32S50.59,19.12,50.59,12.32Z"/></g><g id="path24"><path id="path1_fill" data-name="path1 fill" class="cls-1" d="M79.71,22a8.25,8.25,0,0,1-1,2.24,5.63,5.63,0,0,1-4.61,2.63c-1.39.08-2.77,0-4.16,0-.27,0-.25-.13-.24-.31V10.26c0-.51,0-.44.43-.44,1.21,0,2.43,0,3.63,0a7.92,7.92,0,0,1,2.16.29,5.44,5.44,0,0,1,3.71,3.29,9.84,9.84,0,0,1,.69,3.21A14.94,14.94,0,0,1,79.71,22ZM92.35,15.6a19.07,19.07,0,0,0-.85-4.91,13.73,13.73,0,0,0-3.68-6,14.76,14.76,0,0,0-6.27-3.43A25,25,0,0,0,74.74.48H57.87c-.57,0-.51-.08-.51.53V49.63c0,.49,0,.43.44.43q5.68,0,11.33,0c.59,0,.51.07.51-.49q0-6.72,0-13.44c0-.48-.07-.45.43-.45h3.47A19.43,19.43,0,0,0,80,34.61,17.59,17.59,0,0,0,91.6,22.52a19.88,19.88,0,0,0,.75-6.92"/></g><g id="path26"><path id="path2_fill" data-name="path2 fill" class="cls-1" d="M112.58,38.67c0,.75,0,1.51,0,2.27a.61.61,0,0,1-.24.52,6.79,6.79,0,0,1-4.4,1.6,3,3,0,0,1-3.05-2.41,5.58,5.58,0,0,1-.09-1.88,1.8,1.8,0,0,1,.95-1.37,6.21,6.21,0,0,1,1.73-.61,34.85,34.85,0,0,1,4-.59c.28,0,.55,0,.81-.08s.27.05.27.25c0,.76,0,1.53,0,2.31Zm15.48,3.13-.88-.17a10.1,10.1,0,0,1-1.79-.47.94.94,0,0,1-.72-1.07c0-.79,0-1.57,0-2.36q0-6.16,0-12.32a14.84,14.84,0,0,0-.49-3.83A8.11,8.11,0,0,0,119.49,16a13.67,13.67,0,0,0-4.76-1.07,34.68,34.68,0,0,0-8.13.51A28.65,28.65,0,0,0,95,20.35c-.12.09-.27.15-.33.29l.12.21,3,4.81c.37.6.75,1.19,1.11,1.79.12.19.23.21.39.08a1.39,1.39,0,0,1,.17-.12A22.48,22.48,0,0,1,108.1,24a12.17,12.17,0,0,1,2.79-.12,1.67,1.67,0,0,1,1.64,1.43,3.64,3.64,0,0,1,.11.77c0,1.25,0,2.51,0,3.76,0,.28,0,.28-.31.31-2.39.19-4.76.44-7.12.83a33.79,33.79,0,0,0-6,1.48,11.6,11.6,0,0,0-3.6,2,5.88,5.88,0,0,0-2.07,3.73,12.09,12.09,0,0,0,.69,6.23,9.26,9.26,0,0,0,6.61,5.91,13.38,13.38,0,0,0,6.53-.17,10.73,10.73,0,0,0,5.19-3.11l.47-.49a1.08,1.08,0,0,1,.13.21,5.57,5.57,0,0,0,3.21,2.84,13.22,13.22,0,0,0,3.57.75,53.28,53.28,0,0,0,6.19.08c.33,0,.33,0,.4-.32.29-1.28.57-2.55.85-3.83l.92-4.09c.07-.33.07-.33-.28-.4"/></g><g id="path28"><path id="path3_fill" data-name="path3 fill" class="cls-1" d="M144.36,35.87A30.9,30.9,0,0,1,145.74,31q2.32-7.19,4.65-14.37c0-.09.07-.18.09-.28s.15-.22.33-.22H161l.09,0c.08.14,0,.26-.08.38q-2,5.35-4.06,10.71L145.67,56.88a14.51,14.51,0,0,1-2.57,4.48,12.07,12.07,0,0,1-5.28,3.45,23.32,23.32,0,0,1-5.06,1.08c-.79.09-1.59.14-2.38.2-.3,0-.3,0-.37-.29-.58-2.6-1.22-5.18-1.76-7.79,0-.05,0-.11,0-.16s0-.25.2-.27c.46-.06.93-.12,1.39-.2a16.93,16.93,0,0,0,3.89-1,5.22,5.22,0,0,0,3-3.13c.34-.94.72-1.87,1.11-2.79a1.13,1.13,0,0,0,0-.86q-3.11-8.9-6.2-17.8l-5.29-15.2c0-.14-.15-.27-.09-.43a.81.81,0,0,1,.37,0H138c.19,0,.27.08.31.25.15.53.32,1,.48,1.58l4.76,15.47a19.37,19.37,0,0,1,.63,2.81c.05.07,0,.16,0,.24a.89.89,0,0,0,0,.24s.09,0,0,0-.05,0-.05,0v-.2a4.5,4.5,0,0,0,.11-.55"/></g><g id="path30"><path id="path4_fill" data-name="path4 fill" class="cls-1" d="M167.41,33.76v-9c0-.3,0-.3-.33-.33l-3.28-.3c-.32,0-.34,0-.31-.37.09-1.22.18-2.44.28-3.66s.2-2.44.3-3.65c0-.33,0-.33.35-.34h3c.33,0,.33,0,.37-.33.24-2.07.49-4.14.74-6.22.13-1.09.27-2.18.39-3.27,0-.24.13-.3.33-.31l2.13-.18,6.4-.56,1.44-.12c.2,0,.28,0,.26.24s0,.22,0,.33v10c0,.41-.06.4.4.4h8c.43,0,.48-.11.42.47-.16,1.6-.3,3.2-.45,4.8-.09.93-.17,1.86-.26,2.79,0,.27,0,.28-.34.28h-7.67a.14.14,0,0,0-.15.16c0,.1,0,.19,0,.29q0,7.94,0,15.87c0,.82.17,1.1,1.09,1.11a23.39,23.39,0,0,0,4.1-.35,14.79,14.79,0,0,0,2-.45c.36-.11.37-.11.46.25L188.32,46c.19.76.38,1.52.57,2.28.08.31.08.32-.23.46A18.32,18.32,0,0,1,184.34,50a36.18,36.18,0,0,1-8,.57,12.84,12.84,0,0,1-4.27-.81,6.8,6.8,0,0,1-4.24-4.71,13.49,13.49,0,0,1-.46-3.71c0-2.54,0-5.08,0-7.63"/></g><g id="path32"><path id="path5_fill" data-name="path5 fill" class="cls-1" d="M144.36,35.87a1.56,1.56,0,0,1-.07.59s-.06,0-.07,0v-.25c.11-.08,0-.25.14-.32"/></g><g id="path34"><path id="path6_fill" data-name="path6 fill" class="cls-2" d="M21.75,32.31l.26-.4L34.85,11.24A3.41,3.41,0,0,1,36.4,9.81a3.09,3.09,0,0,1,3.57.77,3.12,3.12,0,0,1,.33,3.68c-.92,1.51-1.86,3-2.79,4.52L24.81,39.3A3.15,3.15,0,0,1,23,40.79a3.07,3.07,0,0,1-3.29-.94c-.31-.35-.58-.73-.86-1.11l-7.27-9.64A2.92,2.92,0,0,1,11,26.43a3,3,0,0,1,2.39-2.24,3,3,0,0,1,3.1,1.18q2.5,3.28,5,6.57l.3.37"/></g><g id="path36"><path id="path7_fill" data-name="path7 fill" class="cls-1" d="M144.21,36.44h.08c0,.09,0,.18,0,.26A.35.35,0,0,1,144.21,36.44Z"/></g></g></g></g></g></g></g></g></g></svg>