<svg xmlns="http://www.w3.org/2000/svg" viewBox="0 0 265.02 36.85"><defs><style>.cls-1{fill:#a7aaaf;}</style></defs><title>Asset 1</title><g id="Layer_2" data-name="Layer 2"><g id="Layer_1-2" data-name="Layer 1"><path class="cls-1" d="M0,12.19H5.36c2.93,0,4.51,1.75,4.51,4.1s-1.59,4.1-4.51,4.1H1.67v4.55H0Zm1.67,1.46V19h3.7a2.5,2.5,0,0,0,2.81-2.64,2.57,2.57,0,0,0-2.85-2.68H1.67Z"/><path class="cls-1" d="M25.49,12.19h1.67V24.95H25.49Z"/><path class="cls-1" d="M70.12,12.19h9v1.46H71.78v4.59h5.85v1.38H71.78v5.32H70.12Z"/><path class="cls-1" d="M99.58,11.9a6.44,6.44,0,0,1,6.54,6.67,6.55,6.55,0,1,1-13.09,0A6.42,6.42,0,0,1,99.58,11.9Zm0,11.79a4.79,4.79,0,0,0,4.8-5.12,4.81,4.81,0,1,0-9.59,0c0,2.93,1.91,5.12,4.8,5.12Z"/><path class="cls-1" d="M121.74,12.19h5.53c2.85,0,4.39,1.42,4.39,3.78a3.64,3.64,0,0,1-3.13,3.82l3.62,5.2h-1.87l-3.5-5.12H123.4v5.08h-1.67Zm1.71,1.46v4.8h3.86c1.83,0,2.68-1,2.68-2.44s-.93-2.32-2.68-2.32Z"/><path class="cls-1" d="M147.75,12.19h1.83l4.76,7.11,4.76-7.11h1.83V24.95h-1.67l.08-10.28-4.43,6.54h-1.1l-4.43-6.54.08,10.28h-1.67V12.19Z"/><path class="cls-1" d="M180.68,12.19h2l5,12.76h-1.75l-1.34-3.45H178.6l-1.34,3.45h-1.67Zm.89,1.71-2.4,6.22H184l-2.4-6.22Z"/><path class="cls-1" d="M202.38,12.19h1.54l7.52,10h0l0-10h1.67V24.91h-1.54l-7.52-10H204l.08,10h-1.67Z"/><path class="cls-1" d="M235.47,11.9a6.25,6.25,0,0,1,4.88,2.15l-1.14,1.06a4.64,4.64,0,0,0-3.7-1.71,4.77,4.77,0,0,0-4.92,5.12c0,3,1.91,5.12,4.88,5.12a4.52,4.52,0,0,0,3.7-1.71L240.31,23a6.18,6.18,0,0,1-4.88,2.15,6.45,6.45,0,0,1-6.67-6.67A6.39,6.39,0,0,1,235.47,11.9Z"/><path class="cls-1" d="M255.71,12.19h9.11v1.46h-7.44v4.1h6.06v1.38h-6.06v4.39H265V25h-9.31V12.19Z"/><path class="cls-1" d="M33.9,34.05h0A.73.73,0,0,1,33.82,33L65.73.19a.81.81,0,0,1,1.1,0h0a.73.73,0,0,1,.08,1.06L35,34.09a.74.74,0,0,1-1.1,0Z"/><path class="cls-1" d="M50.12,21.7l15.16,15a.76.76,0,0,0,1.06,0h0a.76.76,0,0,0,0-1.06l-15.2-15Z"/><path class="cls-1" d="M47.27,16.09,39,8a.73.73,0,0,0-1.06.08h0a.73.73,0,0,0,0,1.06l8.29,8Z"/></g></g></svg>