<svg xmlns="http://www.w3.org/2000/svg" viewBox="0 0 274.62 116.84"><defs><style>.cls-1{fill:#a7aaaf;}.cls-2{fill:#fff;}</style></defs><title>tjboxingtrainingclubs-logo.svg</title><g id="Layer_2" data-name="Layer 2"><g id="Laag_1" data-name="Laag 1"><path class="cls-1" d="M116.11,33.86v2c0,5.77-1.91,9.45-6.17,11.29,5.13,1.84,7.13,6.09,7.13,12v4.56c0,8.65-5,13.29-14.51,13.29h-15V21h14.43C111.85,21,116.11,25.22,116.11,33.86ZM97.07,29V43.79h3.74c3.56,0,5.74-1.44,5.74-5.93V34.74c0-4-1.48-5.77-4.87-5.77Zm0,22.82V69h5.48c3.22,0,5-1.36,5-5.53V58.61c0-5.21-1.83-6.81-6.17-6.81Z"/><path class="cls-1" d="M122,34.42c0-9,5.13-14.09,14.51-14.09S151,25.46,151,34.42V63.57c0,9-5.13,14.09-14.51,14.09S122,72.54,122,63.57Zm9.56,29.71c0,4,1.91,5.53,5,5.53s5-1.52,5-5.53V33.86c0-4-1.91-5.53-5-5.53s-5,1.52-5,5.53Z"/><path class="cls-1" d="M187.8,21l-10,27.23L188.5,77H178.42L170.6,54.84,162.69,77h-9L164.42,48.2,154.43,21h9.91l7.21,20.66L178.94,21Z"/><path class="cls-1" d="M193.28,21h9.56V77h-9.56Z"/><path class="cls-1" d="M218.31,36.43V77h-8.6V21h12l9.82,33.55V21H240V77h-9.82Z"/><path class="cls-1" d="M261.24,45.8h13.38V63.57c0,9-4.87,14.09-14.25,14.09s-14.25-5.12-14.25-14.09V34.42c0-9,4.87-14.09,14.25-14.09s14.25,5.13,14.25,14.09v5.45h-9v-6c0-4-1.91-5.53-5-5.53s-5,1.52-5,5.53V64.13c0,4,1.91,5.45,5,5.45s5-1.44,5-5.45V53.8h-4.35Z"/><path class="cls-1" d="M105.32,86.1h7.39v2.25h-2.5v13.51h-2.39V88.36h-2.5Z"/><path class="cls-1" d="M122,101.87a5,5,0,0,1-.22-1.94V97.46c0-1.46-.48-2-1.56-2h-.83v6.42H117V86.1h3.61c2.48,0,3.54,1.19,3.54,3.63V91c0,1.62-.5,2.68-1.56,3.2,1.2.52,1.59,1.71,1.59,3.36V100a4.8,4.8,0,0,0,.26,1.91ZM119.4,88.36V93.2h.93c.89,0,1.43-.41,1.43-1.67V90c0-1.13-.37-1.62-1.22-1.62Z"/><path class="cls-1" d="M136.74,101.87h-2.41L133.92,99H131l-.41,2.86h-2.19l2.43-15.77h3.5Zm-5.45-5h2.3l-1.15-8Z"/><path class="cls-1" d="M141.11,86.1h2.39v15.77h-2.39Z"/><path class="cls-1" d="M150.63,90.45v11.42h-2.15V86.1h3l2.46,9.44V86.1h2.13v15.77H153.6Z"/><path class="cls-1" d="M161,86.1h2.39v15.77H161Z"/><path class="cls-1" d="M170.55,90.45v11.42H168.4V86.1h3l2.46,9.44V86.1H176v15.77h-2.46Z"/><path class="cls-1" d="M184.54,93.09h3.35v5c0,2.52-1.22,4-3.56,4s-3.56-1.44-3.56-4v-8.2c0-2.52,1.22-4,3.56-4s3.56,1.44,3.56,4v1.53h-2.26V89.73c0-1.13-.48-1.55-1.24-1.55s-1.24.43-1.24,1.55v8.51c0,1.13.48,1.53,1.24,1.53s1.24-.41,1.24-1.53V95.34h-1.09Z"/><path class="cls-1" d="M206.25,96v2.09c0,2.52-1.22,4-3.56,4s-3.56-1.44-3.56-4v-8.2c0-2.52,1.22-4,3.56-4s3.56,1.44,3.56,4v1.53H204V89.73c0-1.13-.48-1.55-1.24-1.55s-1.24.43-1.24,1.55v8.51c0,1.13.48,1.53,1.24,1.53s1.24-.41,1.24-1.53V96Z"/><path class="cls-1" d="M211,86.1h2.39V99.62h3.93v2.25H211Z"/><path class="cls-1" d="M223.87,86.1V98.27c0,1.13.48,1.53,1.24,1.53s1.24-.41,1.24-1.53V86.1h2.26v12c0,2.52-1.22,4-3.56,4s-3.56-1.44-3.56-4v-12Z"/><path class="cls-1" d="M240.64,89.73v.56c0,1.62-.48,2.66-1.54,3.18,1.28.52,1.78,1.71,1.78,3.38v1.28c0,2.43-1.24,3.74-3.63,3.74h-3.76V86.1h3.61C239.58,86.1,240.64,87.3,240.64,89.73Zm-4.76-1.37v4.17h.93c.89,0,1.43-.41,1.43-1.67V90c0-1.13-.37-1.62-1.22-1.62Zm0,6.42v4.84h1.37c.8,0,1.24-.38,1.24-1.55V96.69c0-1.46-.46-1.92-1.54-1.92Z"/><path class="cls-1" d="M248.79,85.92c2.33,0,3.52,1.44,3.52,4v.5H250v-.65c0-1.13-.43-1.55-1.19-1.55s-1.2.43-1.2,1.55c0,3.24,4.67,3.85,4.67,8.36,0,2.52-1.22,4-3.56,4s-3.56-1.44-3.56-4v-1h2.26v1.13c0,1.13.48,1.53,1.24,1.53s1.24-.41,1.24-1.53c0-3.24-4.67-3.85-4.67-8.36C245.27,87.37,246.46,85.92,248.79,85.92Z"/><path class="cls-1" d="M0,0V99.93a9,9,0,0,0,4.31,7.82c11,6.65,20.55,9.09,33.42,9.09A62.25,62.25,0,0,0,69,108.48a8.85,8.85,0,0,0,4.25-7.8V0Z"/><path class="cls-2" d="M10,15.31H42.65a.59.59,0,0,1,.59.59v8.82a.59.59,0,0,1-.59.59H32.4a.59.59,0,0,0-.59.59V84.65a.59.59,0,0,1-.59.59H21.47a.59.59,0,0,1-.59-.59V25.89a.59.59,0,0,0-.59-.59H10a.59.59,0,0,1-.59-.59V15.9A.59.59,0,0,1,10,15.31Z"/><path class="cls-2" d="M38.15,94.29a.58.58,0,0,1,.59-.59l3.19,0c3.45,0,6.18-1.25,6.18-6.64V34.33a.59.59,0,0,1,.59-.59h9.68a.59.59,0,0,1,.59.59v52c0,14-7.4,17.58-15.59,17.58-1.77,0-3.15,0-4.7-.15a.59.59,0,0,1-.53-.59Z"/></g></g></svg>