<svg version="1" xmlns="http://www.w3.org/2000/svg" width="933.333" height="933.333" viewBox="0 0 700.000000 700.000000"><path d="M328.5.6c-20.3 2-27.6 2.8-37.5 4.5-61 10.5-119.5 37.6-166.5 77.2-9.5 8.1-31 29.4-39.4 39.2C38.3 175.7 10.9 239.1 1.8 314c-1.7 13.7-1.7 58.3 0 72 6.9 56.9 22.7 102.8 51.4 149.1 14.5 23.6 31.1 44 52.5 64.9 20.4 20 37.1 33.2 59.2 46.8 46.3 28.7 92.2 44.5 149.1 51.4 13.7 1.7 58.3 1.7 72 0 56.9-6.9 102.8-22.7 149.1-51.4 36-22.2 69.2-52.8 95.8-88.2 32.3-43 54.9-96 64-150.1 3.8-22.3 4.6-32.7 4.6-58.5 0-25.8-.8-36.2-4.6-58.5-10.5-62.7-38.2-121.6-80-170-8.4-9.8-29.9-31.1-39.4-39.2-51.8-43.7-114.8-71-184.5-79.8C379.3 1 337.4-.3 328.5.6zM507 179.8c0 2.7-.9 8.3-2 12.6-5.9 23.1-23.1 41.4-46.5 49.4l-8 2.7-88.5.5c-48.7.3-88.6.7-88.7.8-.1.1-1.8 1.6-3.8 3.3-2 1.8-4.1 4.1-4.8 5.3-.9 1.6-1.3 18.6-1.7 66.1l-.5 64-6.8-.3c-21.6-.9-44.6-16.3-54.9-36.9-8-15.8-8.3-18.5-8.3-67.3s.3-51.5 8.3-67.3c9.3-18.7 28.9-33.2 49.6-36.6 2.8-.5 61.7-.9 130.9-1L507 175v4.8zm-48.5 138.4c11.1 3.8 19.7 9.1 28 17.3 12.2 12 18.5 25.1 20.6 42.8.7 6.1.9 23.2.6 48.3-.4 43.4-.6 44.4-7.6 58.9-8.5 17.4-22.5 29.5-41.6 36-9.2 3-20.4 3.6-70.7 3.3l-49.6-.3-2.6-2.4-2.6-2.4v-59.8l2.5-2.4 2.4-2.5H380c45.2 0 46.3-.1 51.8-5.3 4.9-4.6 5.2-6.1 5.2-29.9 0-21.2-.1-22.5-2.3-26.3-1.4-2.6-3.7-4.8-6.7-6.3-4.4-2.2-4.9-2.2-46.3-2.2-47 0-46.8 0-48.6-6.8-1.4-4.9-1.4-51.5 0-56.4 1.9-7-.1-6.8 61.9-6.5l55.5.2 8 2.7zM262.8 484.8c.1 18.3-.2 30.8-.8 33.3-1.8 6.8-2.6 6.9-38 6.9h-31v-4.8c0-7.4 3.4-19.3 8.2-28.5 4.9-9.6 15.9-21.2 25.1-26.6 10.1-5.9 24.1-10.1 32.7-9.8l3.5.2.3 29.3z"/></svg>